<svg width="42" height="42" viewBox="0 0 42 42" fill="none" xmlns="http://www.w3.org/2000/svg">
<path d="M40 21.6296C39.998 19.9109 39.5286 18.2252 38.642 16.7532C37.7555 15.2813 36.4853 14.0787 34.9677 13.2746V12.1852C34.9685 10.5015 34.4503 8.85865 33.4838 7.48066C32.5174 6.10267 31.1497 5.05668 29.5674 4.48539C27.9852 3.9141 26.2654 3.84533 24.6426 4.28847C23.0199 4.73161 21.5732 5.66507 20.5 6.9615C19.4268 5.66507 17.9802 4.73161 16.3574 4.28848C14.7347 3.84534 13.0149 3.9141 11.4326 4.48538C9.85034 5.05666 8.48269 6.10263 7.51622 7.48061C6.54975 8.85859 6.03153 10.5015 6.03226 12.1851V13.2746C4.51315 14.0767 3.24163 15.2788 2.35482 16.751C1.46801 18.2233 0.999566 19.91 1 21.6292C1.00043 23.3483 1.46973 25.0348 2.35729 26.5066C3.24484 27.9784 4.51697 29.1798 6.03648 29.9812C6.0693 31.6502 6.61149 33.2692 7.59024 34.6208C8.569 35.9724 9.93746 36.9919 11.5119 37.5424C13.0863 38.0929 14.7913 38.1481 16.398 37.7005C18.0047 37.2529 19.4361 36.324 20.5 35.0385C21.5639 36.324 22.9953 37.2529 24.602 37.7005C26.2087 38.1481 27.9137 38.0929 29.4881 37.5424C31.0625 36.9919 32.431 35.9724 33.4098 34.6208C34.3885 33.2692 34.9307 31.6502 34.9635 29.9812C36.4823 29.1791 37.7539 27.9776 38.6413 26.506C39.5288 25.0345 39.9985 23.3485 40 21.6296ZM14.2097 34.2222C13.2598 34.2209 12.3357 33.9127 11.5749 33.3434C10.8142 32.7742 10.2573 31.9742 9.98729 31.0627C10.1359 31.0697 10.2852 31.0741 10.4355 31.0741H11.6936C12.194 31.0741 12.674 30.8751 13.0279 30.5208C13.3818 30.1666 13.5806 29.6861 13.5806 29.1852C13.5806 28.6842 13.3818 28.2038 13.0279 27.8495C12.674 27.4953 12.194 27.2963 11.6936 27.2963H10.4355C9.09992 27.296 7.80744 26.8232 6.78642 25.9614C5.7654 25.0996 5.08157 23.9043 4.85573 22.5867C4.6299 21.2692 4.87661 19.9141 5.55228 18.7609C6.22794 17.6078 7.28907 16.7308 8.54816 16.2849C8.91609 16.1547 9.23465 15.9136 9.45997 15.5947C9.68529 15.2757 9.80628 14.8947 9.8063 14.5041L9.80645 12.1852C9.80645 11.0163 10.2704 9.89523 11.0961 9.06868C11.9219 8.24214 13.0419 7.77778 14.2097 7.77778C15.3775 7.77778 16.4975 8.24214 17.3232 9.06868C18.149 9.89523 18.6129 11.0163 18.6129 12.1852V22.9171C18.2521 22.686 17.8738 22.4835 17.4814 22.3116C17.2543 22.2121 17.0098 22.1585 16.762 22.1536C16.5141 22.1487 16.2678 22.1928 16.0369 22.2833C15.8061 22.3738 15.5953 22.5089 15.4167 22.6809C15.2381 22.8529 15.095 23.0585 14.9958 23.2859C14.8965 23.5132 14.843 23.758 14.8383 24.006C14.8336 24.2541 14.8777 24.5007 14.9682 24.7317C15.0587 24.9627 15.1938 25.1736 15.3658 25.3523C15.5377 25.531 15.7432 25.6741 15.9704 25.7733C16.8977 26.1784 17.6573 26.8907 18.1217 27.7905C18.586 28.6902 18.7267 29.7226 18.5201 30.7139C18.3135 31.7053 17.7722 32.5953 16.9872 33.2342C16.2022 33.8731 15.2214 34.222 14.2097 34.2222ZM30.5645 27.2963H29.3065C28.806 27.2963 28.326 27.4953 27.9721 27.8495C27.6182 28.2038 27.4194 28.6842 27.4194 29.1852C27.4194 29.6861 27.6182 30.1666 27.9721 30.5208C28.326 30.8751 28.806 31.0741 29.3065 31.0741H30.5645C30.7148 31.0741 30.8641 31.0697 31.0127 31.0627C30.8028 31.7732 30.4174 32.4193 29.892 32.9412C29.3666 33.4632 28.7182 33.8441 28.0068 34.0488C27.2954 34.2535 26.5439 34.2754 25.8218 34.1124C25.0997 33.9494 24.4303 33.6069 23.8754 33.1164C23.3206 32.6259 22.8983 32.0033 22.6475 31.3062C22.3967 30.6091 22.3256 29.86 22.4406 29.128C22.5556 28.3961 22.8532 27.705 23.3057 27.1187C23.7582 26.5323 24.3511 26.0696 25.0296 25.7733C25.2568 25.6741 25.4623 25.5311 25.6342 25.3523C25.8062 25.1736 25.9413 24.9627 26.0318 24.7317C26.1223 24.5007 26.1664 24.2541 26.1617 24.006C26.157 23.758 26.1035 23.5132 26.0042 23.2859C25.905 23.0585 25.7619 22.8529 25.5833 22.6809C25.4047 22.5089 25.1939 22.3738 24.9631 22.2833C24.7323 22.1928 24.4859 22.1487 24.238 22.1536C23.9902 22.1585 23.7457 22.2121 23.5186 22.3116C23.1262 22.4835 22.7479 22.686 22.3871 22.9171V12.1852C22.3871 11.6064 22.501 11.0333 22.7223 10.4986C22.9436 9.96382 23.2679 9.47796 23.6768 9.0687C24.0857 8.65943 24.5711 8.33479 25.1053 8.1133C25.6395 7.89181 26.2121 7.77782 26.7904 7.77782C27.3686 7.77783 27.9412 7.89183 28.4754 8.11333C29.0096 8.33483 29.495 8.65948 29.9039 9.06875C30.3128 9.47802 30.6371 9.96389 30.8584 10.4986C31.0797 11.0334 31.1936 11.6065 31.1936 12.1853L31.1937 14.5041C31.1937 14.8947 31.3147 15.2757 31.54 15.5947C31.7654 15.9136 32.0839 16.1547 32.4518 16.2849C33.7109 16.7308 34.7721 17.6078 35.4477 18.7609C36.1234 19.9141 36.3701 21.2692 36.1443 22.5867C35.9184 23.9043 35.2346 25.0996 34.2136 25.9614C33.1926 26.8232 31.9001 27.296 30.5645 27.2963ZM16.0968 15.963C16.0949 17.6323 15.4316 19.2327 14.2523 20.413C13.073 21.5934 11.4742 22.2574 9.80645 22.2593C9.30597 22.2593 8.82597 22.0603 8.47208 21.706C8.11818 21.3518 7.91936 20.8713 7.91936 20.3704C7.91936 19.8694 8.11818 19.389 8.47208 19.0347C8.82597 18.6805 9.30597 18.4815 9.80645 18.4815C10.4735 18.4807 11.1131 18.2151 11.5848 17.743C12.0565 17.2708 12.3218 16.6307 12.3226 15.963V14.7037C12.3226 14.2027 12.5214 13.7223 12.8753 13.3681C13.2292 13.0138 13.7092 12.8148 14.2097 12.8148C14.7102 12.8148 15.1902 13.0138 15.5441 13.3681C15.898 13.7223 16.0968 14.2027 16.0968 14.7037V15.963ZM33.0806 20.3704C33.0806 20.8713 32.8818 21.3518 32.5279 21.706C32.174 22.0603 31.694 22.2593 31.1936 22.2593C29.5258 22.2574 27.927 21.5934 26.7477 20.413C25.5684 19.2327 24.9051 17.6323 24.9032 15.963V14.7037C24.9032 14.2027 25.102 13.7223 25.4559 13.3681C25.8098 13.0138 26.2898 12.8148 26.7903 12.8148C27.2908 12.8148 27.7708 13.0138 28.1247 13.3681C28.4786 13.7223 28.6774 14.2027 28.6774 14.7037V15.963C28.6782 16.6307 28.9435 17.2708 29.4152 17.743C29.8869 18.2151 30.5265 18.4807 31.1936 18.4815C31.694 18.4815 32.174 18.6805 32.5279 19.0347C32.8818 19.389 33.0806 19.8694 33.0806 20.3704Z" fill="#AEAEAE"/>
</svg>
