<svg width="42" height="42" viewBox="0 0 42 42" fill="none" xmlns="http://www.w3.org/2000/svg">
<path d="M34.4821 11.5348C34.1377 8.32276 31.0337 7 31.0337 7C31.0337 7 30.1807 9.60738 30.5165 12.1013C30.9241 15.1261 27.3285 18.3774 19.7005 18.3774C19.7005 18.3774 5.01283 18.3774 2.03238 18.3774C-0.947471 18.3774 2.41567 29.1042 13.5274 29.5732C14.3833 29.6094 15.1974 29.5842 15.9767 29.5118C17.3899 31.0217 19.5132 32.7385 22.5847 33.9815C23.7485 34.3916 25.3599 27.9024 18.9444 23.3984L19.145 23.2154C21.2842 24.1435 22.7732 25.3644 23.7815 26.6368C27.7083 23.8692 29.7482 19.9739 30.6893 18.7137C32.241 16.6355 33.7492 16.3635 36.0345 16.0689C38.965 15.6909 40 13.424 40 13.424C40 13.424 36.896 11.3457 34.4821 11.5348Z" fill="#AEAEAE"/>
</svg>
