<svg width="42" height="42" viewBox="0 0 42 42" fill="none" xmlns="http://www.w3.org/2000/svg">
<path fill-rule="evenodd" clip-rule="evenodd" d="M14.5169 4.19802C14.7134 4.42337 14.8963 4.66099 15.0653 4.91089C15.0624 4.97137 15.0886 5.01097 15.1436 5.0297C15.1987 5.04844 15.2248 5.08804 15.222 5.14852C15.2447 5.23759 15.2969 5.30357 15.3787 5.34654C15.4727 5.41767 15.538 5.5101 15.5745 5.62377C15.5973 5.71283 15.6495 5.77881 15.7312 5.82179C15.9069 6.0185 16.0636 6.22971 16.2013 6.45545C16.224 6.54452 16.2762 6.6105 16.358 6.65347C16.4382 6.73466 16.5035 6.82705 16.5539 6.9307C16.5766 7.01977 16.6288 7.08575 16.7106 7.12872C17.093 7.58135 17.4455 8.0566 17.7682 8.55446C17.7909 8.64353 17.8432 8.70951 17.9249 8.75248C17.9861 8.80971 18.0384 8.87569 18.0816 8.9505C18.0788 9.01098 18.1049 9.05058 18.16 9.06932C18.4788 9.44955 18.7792 9.84559 19.0609 10.2574C19.0581 10.3179 19.0842 10.3575 19.1393 10.3762C19.2005 10.4335 19.2527 10.4995 19.296 10.5743C19.2931 10.6347 19.3192 10.6743 19.3743 10.6931C19.6493 11.0241 19.9104 11.3673 20.1578 11.7228C20.1549 11.7833 20.181 11.8229 20.2361 11.8416C20.2974 11.8988 20.3496 11.9648 20.3928 12.0396C20.39 12.1001 20.4161 12.1397 20.4712 12.1584C20.7116 12.433 20.9336 12.7235 21.1371 13.0297C21.1342 13.0902 21.1604 13.1298 21.2155 13.1485C21.2767 13.2058 21.3289 13.2717 21.3721 13.3466C21.3693 13.407 21.3954 13.4466 21.4505 13.4654C21.5117 13.5226 21.5639 13.5886 21.6072 13.6634C21.6043 13.7239 21.6305 13.7635 21.6855 13.7822C21.8802 14.0124 22.0695 14.25 22.2535 14.4951C22.6002 14.1093 22.9462 13.7265 23.2916 13.3466C23.3467 13.3278 23.3728 13.2882 23.37 13.2277C23.4222 13.1485 23.4875 13.0825 23.5658 13.0297C23.6209 13.011 23.647 12.9714 23.6442 12.9109C24.4142 12.0004 25.1977 11.1027 25.9946 10.2178C26.0763 10.1749 26.1285 10.1089 26.1513 10.0198C26.2547 9.85051 26.3853 9.70528 26.543 9.58417C26.6247 9.5412 26.677 9.47522 26.6997 9.38615C26.8032 9.21684 26.9337 9.07161 27.0914 8.9505C27.1732 8.90753 27.2254 8.84155 27.2481 8.75248C27.2481 8.7393 27.2481 8.72607 27.2481 8.71288C27.9387 7.909 28.6438 7.11692 29.3634 6.33664C29.4709 6.26777 29.5492 6.17533 29.5985 6.05941C29.5985 6.03299 29.6115 6.01981 29.6377 6.01981C29.7451 5.95093 29.8234 5.8585 29.8727 5.74258C29.8727 5.71616 29.8857 5.70297 29.9119 5.70297C30.0193 5.6341 30.0977 5.54167 30.1469 5.42575C30.1469 5.39933 30.1599 5.38614 30.1861 5.38614C30.2678 5.34317 30.32 5.27719 30.3428 5.18812C30.3689 5.13533 30.4081 5.09572 30.4603 5.06931C30.542 5.02634 30.5943 4.96036 30.617 4.87129C30.6431 4.8185 30.6823 4.77889 30.7345 4.75248C30.8162 4.70951 30.8685 4.64353 30.8912 4.55446C30.9173 4.50166 30.9565 4.46206 31.0087 4.43564C31.0905 4.39267 31.1427 4.32669 31.1654 4.23762C31.1915 4.18483 31.2307 4.14523 31.2829 4.11881C31.3277 4.10265 31.3669 4.07625 31.4004 4.0396C32.3014 4.0264 33.2024 4.0132 34.1034 4C35.0178 4.00001 35.9188 4.02641 36.8063 4.07921C36.4407 4.51485 36.0751 4.9505 35.7095 5.38614C35.6544 5.40487 35.6283 5.44448 35.6311 5.50495C35.4657 5.66741 35.309 5.83901 35.161 6.01981C35.106 6.03854 35.0798 6.07814 35.0827 6.13862C34.8212 6.40297 34.5731 6.6802 34.3384 6.9703C34.2833 6.98903 34.2572 7.02864 34.2601 7.08911C34.1817 7.14191 34.1164 7.20793 34.0642 7.28713C34.0091 7.30587 33.983 7.34547 33.9859 7.40595C33.9075 7.45874 33.8422 7.52476 33.79 7.60397C33.7349 7.6227 33.7088 7.6623 33.7116 7.72278C33.6333 7.77557 33.568 7.84159 33.5158 7.9208C33.4607 7.93953 33.4346 7.97914 33.4374 8.03961C33.3591 8.0924 33.2938 8.15842 33.2416 8.23763C33.1865 8.25636 33.1604 8.29597 33.1632 8.35644C33.0849 8.40924 33.0196 8.47526 32.9674 8.55446C32.9123 8.5732 32.8862 8.6128 32.889 8.67328C32.8107 8.72607 32.7454 8.79209 32.6931 8.8713C32.6381 8.89003 32.6119 8.92963 32.6148 8.99011C32.5365 9.0429 32.4712 9.10892 32.4189 9.18813C32.3639 9.20686 32.3377 9.24646 32.3406 9.30694C32.2622 9.35973 32.1969 9.42575 32.1447 9.50496C32.0896 9.52369 32.0635 9.5633 32.0664 9.62377C31.988 9.67656 31.9227 9.74258 31.8705 9.82179C31.8154 9.84052 31.7893 9.88013 31.7922 9.9406C31.3479 10.4162 30.917 10.9047 30.4995 11.406C30.4444 11.4247 30.4183 11.4643 30.4211 11.5248C30.2557 11.6872 30.099 11.8588 29.951 12.0396C29.896 12.0584 29.8698 12.098 29.8727 12.1584C29.7943 12.2112 29.729 12.2772 29.6768 12.3565C29.6217 12.3752 29.5956 12.4148 29.5985 12.4753C28.0052 14.2645 26.4317 16.073 24.8781 17.901C24.8618 17.9916 24.8879 18.0708 24.9565 18.1386C25.2196 18.477 25.4742 18.8202 25.7204 19.1683C25.7175 19.2288 25.7436 19.2684 25.7987 19.2872C26.1959 19.773 26.5746 20.2747 26.9347 20.7921C26.9319 20.8526 26.958 20.8922 27.0131 20.9109C27.0522 20.9373 27.0914 20.9637 27.1306 20.9901C27.454 21.4757 27.7934 21.951 28.1491 22.4159C28.1462 22.4763 28.1723 22.516 28.2274 22.5347C28.3895 22.7036 28.5332 22.8884 28.6583 23.0891C28.6555 23.1496 28.6816 23.1892 28.7367 23.208C28.7979 23.2652 28.8501 23.3312 28.8934 23.406C28.8905 23.4664 28.9166 23.5061 28.9717 23.5248C29.0329 23.582 29.0852 23.648 29.1284 23.7228C29.1255 23.7833 29.1517 23.8229 29.2067 23.8416C29.3824 24.0383 29.5391 24.2495 29.6768 24.4753C29.6995 24.5644 29.7518 24.6303 29.8335 24.6733C29.8886 24.692 29.9147 24.7316 29.9119 24.7921C29.9346 24.8812 29.9868 24.9472 30.0686 24.9901C30.3226 25.2925 30.5576 25.6093 30.7737 25.9406C30.7964 26.0297 30.8486 26.0957 30.9304 26.1387C30.9397 26.2141 30.9789 26.2669 31.0479 26.2971C31.0572 26.3725 31.0964 26.4253 31.1654 26.4555C31.4194 26.7578 31.6544 27.0747 31.8705 27.406C31.8932 27.4951 31.9455 27.561 32.0272 27.604C32.0823 27.6227 32.1084 27.6623 32.1056 27.7228C32.1283 27.8119 32.1805 27.8779 32.2622 27.9208C32.4096 28.0566 32.5271 28.2151 32.6148 28.3961C32.6375 28.4852 32.6897 28.5511 32.7715 28.5941C32.7686 28.6546 32.7948 28.6942 32.8498 28.7129C32.8726 28.802 32.9248 28.868 33.0065 28.9109C33.0037 28.9714 33.0298 29.011 33.0849 29.0297C33.1076 29.1188 33.1598 29.1848 33.2416 29.2278C33.2509 29.3032 33.2901 29.356 33.3591 29.3862C33.3684 29.4616 33.4076 29.5144 33.4766 29.5446C33.6523 29.7413 33.8089 29.9525 33.9467 30.1783C33.9694 30.2673 34.0216 30.3333 34.1034 30.3763C34.1127 30.4517 34.1519 30.5045 34.2209 30.5347C34.2302 30.6101 34.2694 30.6629 34.3384 30.6931C34.3477 30.7685 34.3869 30.8214 34.4559 30.8515C34.4653 30.9269 34.5044 30.9798 34.5735 31.0099C34.5828 31.0854 34.6219 31.1382 34.691 31.1684C34.8383 31.3042 34.9559 31.4626 35.0435 31.6436C35.0662 31.7327 35.1185 31.7987 35.2002 31.8416C35.2095 31.917 35.2487 31.9699 35.3177 32C35.3271 32.0755 35.3662 32.1283 35.4353 32.1585C35.4446 32.2339 35.4838 32.2867 35.5528 32.3169C35.5621 32.3923 35.6013 32.4451 35.6703 32.4753C35.6796 32.5507 35.7188 32.6035 35.7878 32.6337C35.8851 32.7248 35.9635 32.8304 36.0229 32.9505C36.0456 33.0396 36.0978 33.1056 36.1795 33.1486C36.1767 33.209 36.2028 33.2486 36.2579 33.2674C36.2806 33.3564 36.3328 33.4224 36.4146 33.4654C36.4117 33.5259 36.4379 33.5655 36.4929 33.5842C36.5156 33.6733 36.5679 33.7393 36.6496 33.7822C36.7047 33.801 36.7308 33.8406 36.728 33.901C36.7507 33.9901 36.8029 34.0561 36.8847 34.0991C37.1387 34.4014 37.3737 34.7182 37.5898 35.0496C37.6125 35.1386 37.6647 35.2046 37.7465 35.2476C37.8015 35.2663 37.8277 35.3059 37.8248 35.3664C37.8475 35.4555 37.8997 35.5214 37.9815 35.5644C38.0427 35.6216 38.0949 35.6876 38.1382 35.7624C38.1353 35.8229 38.1615 35.8625 38.2165 35.8812C38.4915 36.2122 38.7526 36.5555 39 36.9109C35.3049 36.9901 31.5965 37.0165 27.8749 36.9902C27.8487 36.9374 27.8096 36.8978 27.7573 36.8713C27.748 36.7959 27.7088 36.7431 27.6398 36.7129C27.6149 36.622 27.5627 36.5561 27.4831 36.5149C25.2134 33.4437 22.9152 30.3942 20.5887 27.3664C20.1317 26.7591 19.6747 26.1518 19.2176 25.5446C19.1829 25.4941 19.1437 25.4941 19.1001 25.5446C17.0999 27.8307 15.1151 30.1277 13.1458 32.4357C11.8135 33.9411 10.4947 35.4593 9.18934 36.9902C7.37414 37.0033 5.55913 36.9902 3.74429 36.9506C3.76886 36.9142 3.78192 36.8746 3.78346 36.8317C3.80958 36.7789 3.84875 36.7393 3.90098 36.7129C3.99638 36.6824 4.04861 36.6164 4.05767 36.5149C4.4621 36.0269 4.87995 35.5516 5.31121 35.0892C5.43159 35.0072 5.52298 34.9016 5.58542 34.7723C5.66717 34.7294 5.71939 34.6634 5.74211 34.5743C5.75516 34.5347 5.78128 34.5083 5.82046 34.4951C5.95376 34.4001 6.05824 34.2812 6.13384 34.1387C6.24129 34.0698 6.31964 33.9774 6.36888 33.8614C6.47633 33.7926 6.55468 33.7001 6.60392 33.5842C6.73722 33.4892 6.8417 33.3703 6.9173 33.2278C7.02475 33.1589 7.1031 33.0665 7.15234 32.9505C7.28565 32.8555 7.39012 32.7367 7.46572 32.5941C7.57318 32.5252 7.65152 32.4328 7.70076 32.3169C7.83407 32.2218 7.93854 32.103 8.01415 31.9604C8.1216 31.8916 8.19994 31.7991 8.24918 31.6832C8.38249 31.5882 8.48696 31.4694 8.56257 31.3268C8.67002 31.2579 8.74837 31.1655 8.79761 31.0496C8.93091 30.9545 9.03539 30.8357 9.11099 30.6931C9.21844 30.6242 9.29679 30.5318 9.34603 30.4159C9.45348 30.347 9.53183 30.2546 9.58107 30.1387C9.59411 30.0991 9.62024 30.0726 9.65941 30.0595C9.74117 30.0165 9.79338 29.9505 9.8161 29.8614C9.84223 29.8086 9.88141 29.769 9.93362 29.7426C10.0154 29.6996 10.0676 29.6337 10.0903 29.5446C10.2062 29.3614 10.3498 29.203 10.5212 29.0694C10.603 29.0264 10.6552 28.9604 10.6779 28.8713C10.691 28.8317 10.7171 28.8053 10.7563 28.7921C10.838 28.7492 10.8902 28.6832 10.9129 28.5941C10.926 28.5545 10.9521 28.5281 10.9913 28.5149C11.0464 28.4962 11.0725 28.4566 11.0696 28.3961C11.1469 28.2916 11.2383 28.1991 11.3439 28.1189C11.4256 28.0759 11.4778 28.0099 11.5005 27.9208C11.5136 27.8812 11.5397 27.8548 11.5789 27.8416C11.6743 27.8111 11.7265 27.7451 11.7356 27.6436C11.7748 27.5776 11.827 27.5248 11.8923 27.4852C11.9474 27.4665 11.9735 27.4269 11.9706 27.3664C12.8313 26.3259 13.7192 25.3095 14.6344 24.3169C14.6895 24.2981 14.7156 24.2585 14.7127 24.1981C15.2873 23.5248 15.8618 22.8515 16.4363 22.1782C16.5309 22.1424 16.5635 22.0764 16.5343 21.9802C14.8225 19.7155 13.1055 17.458 11.383 15.2079C11.3859 15.1475 11.3598 15.1079 11.3047 15.0891C8.52144 11.4304 5.7532 7.76044 3 4.07921C4.87361 4.0264 6.76041 4 8.6605 4C10.5473 4.0066 12.4342 4.0132 14.321 4.0198C14.3812 4.08742 14.4465 4.14681 14.5169 4.19802ZM12.6757 7.24753C16.3715 12.1864 20.0668 17.1237 23.7617 22.0594C24.9603 23.7067 26.1877 25.3305 27.444 26.9307C27.4684 27.02 27.5206 27.086 27.6007 27.1288C27.61 27.2042 27.6491 27.257 27.7182 27.2872C27.7275 27.3626 27.7667 27.4154 27.8357 27.4456C29.3205 29.5144 30.8352 31.5606 32.3798 33.5842C31.4199 33.6368 30.4536 33.6368 29.481 33.5842C28.0575 31.6966 26.6211 29.822 25.1719 27.9604C25.0306 27.7143 24.8608 27.4899 24.6627 27.2872C24.5213 27.041 24.3516 26.8166 24.1534 26.6139C23.2581 25.3389 22.3179 24.098 21.333 22.8911C21.3236 22.8157 21.2845 22.7629 21.2155 22.7327C21.1927 22.6436 21.1405 22.5777 21.0588 22.5347C21.0494 22.4593 21.0103 22.4064 20.9412 22.3763C20.9319 22.3009 20.8927 22.248 20.8237 22.2179C20.8144 22.1424 20.7752 22.0896 20.7062 22.0594C20.6835 21.9704 20.6313 21.9044 20.5495 21.8614C20.5402 21.786 20.501 21.7332 20.432 21.703C20.4227 21.6276 20.3835 21.5748 20.3145 21.5446C20.3052 21.4692 20.266 21.4163 20.197 21.3862C20.1742 21.2971 20.122 21.2311 20.0403 21.1881C20.0309 21.1127 19.9918 21.0599 19.9227 21.0297C19.9134 20.9543 19.8742 20.9015 19.8052 20.8713C19.7421 20.7307 19.6507 20.6119 19.531 20.5149C19.4716 20.3948 19.3933 20.2891 19.296 20.198C18.2681 18.794 17.23 17.3946 16.1817 16C15.5702 15.198 14.9499 14.4059 14.321 13.6238C14.2983 13.5347 14.2461 13.4687 14.1643 13.4258C14.155 13.3504 14.1158 13.2975 14.0468 13.2673C14.0375 13.1919 13.9983 13.1391 13.9293 13.1089C13.889 12.9746 13.8106 12.869 13.6942 12.7921C12.3399 10.9344 10.9558 9.09938 9.54189 7.28713C10.0439 7.23434 10.5597 7.20797 11.0892 7.20793C11.6209 7.20828 12.1498 7.22147 12.6757 7.24753Z" fill="#AEAEAE"/>
</svg>
